<?xml version="1.0" encoding="utf-8"?>
<!-- Generator: Adobe Illustrator 24.3.0, SVG Export Plug-In . SVG Version: 6.00 Build 0)  -->
<svg version="1.1" id="Layer_1" xmlns="http://www.w3.org/2000/svg" xmlns:xlink="http://www.w3.org/1999/xlink" x="0px" y="0px"
	 viewBox="0 0 36 36" style="enable-background:new 0 0 36 36;" xml:space="preserve">
<style type="text/css">
	.st0{clip-path:url(#SVGID_2_);fill:#FFFFFF;}
	.st1{fill:#E373A3;}
	.st2{font-family:'LustScript';}
	.st3{font-size:10.2706px;}
</style>
<g>
	<defs>
		<rect id="SVGID_1_" x="1.7" y="8.5" width="32.5" height="19.1"/>
	</defs>
	<clipPath id="SVGID_2_">
		<use xlink:href="#SVGID_1_"  style="overflow:visible;"/>
	</clipPath>
	<path class="st0" d="M30.6,17.2c0.4-1.1,0.1-2.4-0.6-3.3c-0.9-1-2.3-1.4-3.5-0.9c-0.9-2.7-3.3-4.6-6.1-4.6c-2.3,0-4.2,1.2-5.4,3
		c-0.6-0.3-1.4-0.5-2.1-0.5c-2.9,0-5.2,2.5-5.2,5.6c0,0.2,0,0.3,0,0.5c-0.3,0-0.5-0.1-0.8-0.1c-2.8,0-5.1,2-5.1,4.4
		c0,2.5,2.8,4.3,5.1,4.4c1.5,0,2.6-0.6,3.1-1c0.8,0.6,3.9,3,8.4,2.8c4-0.2,6.6-2.2,7.4-3c0.9,0.7,2.1,1.2,3.5,1.2
		c2.8,0,5.1-2,5.1-4.4C34.3,19.4,32.7,17.7,30.6,17.2"/>
</g>
<text transform="matrix(1 0 0 1 6.2151 21.703)" class="st1 st2 st3">AD</text>
</svg>
