<?xml version="1.0" encoding="utf-8"?>
<!-- Generator: Adobe Illustrator 24.3.0, SVG Export Plug-In . SVG Version: 6.00 Build 0)  -->
<svg version="1.1" id="Layer_1" xmlns="http://www.w3.org/2000/svg" xmlns:xlink="http://www.w3.org/1999/xlink" x="0px" y="0px"
	 viewBox="0 0 36 36" style="enable-background:new 0 0 36 36;" xml:space="preserve">
<style type="text/css">
	.st0{fill:#FFFFFF;}
</style>
<path class="st0" d="M28.7,17.3c0.3-1,0.1-2-0.6-2.7c-0.7-0.8-1.9-1.1-3-0.7C24.5,11.7,22.4,10,20,10c-1.9,0-3.6,1-4.6,2.5
	c-0.6-0.3-1.2-0.4-1.8-0.4c-2.5,0-4.5,2.1-4.5,4.7c0,0.1,0,0.3,0,0.4c-0.2,0-0.4,0-0.6,0c-2.4,0-4.3,1.6-4.3,3.6
	c0,2.1,2.3,3.6,4.3,3.6c1.3,0,2.2-0.5,2.6-0.8c0.6,0.5,3.3,2.5,7.1,2.3c3.4-0.2,5.6-1.9,6.3-2.5c0.8,0.6,1.8,1,3,1
	c2.4,0,4.3-1.6,4.3-3.6C31.9,19.1,30.6,17.8,28.7,17.3z"/>
</svg>
